<?xml version="1.0" encoding="UTF-8"?>
<svg id="Camada_1" data-name="Camada 1" xmlns="http://www.w3.org/2000/svg" xmlns:xlink="http://www.w3.org/1999/xlink" viewBox="0 0 120 120">
  <defs>
    <style>
      .cls-1 {
        fill: #a78159;
      }

      .cls-2 {
        filter: url(#drop-shadow-1);
      }

      .cls-3 {
        fill: url(#Gradiente_sem_nome_51);
        stroke: url(#Gradiente_sem_nome_42);
        stroke-miterlimit: 10;
      }
    </style>
    <linearGradient id="Gradiente_sem_nome_51" data-name="Gradiente sem nome 51" x1="6.16" y1="113.84" x2="113.84" y2="6.16" gradientUnits="userSpaceOnUse">
      <stop offset=".28" stop-color="#191715"/>
      <stop offset=".69" stop-color="#352f2d"/>
    </linearGradient>
    <linearGradient id="Gradiente_sem_nome_42" data-name="Gradiente sem nome 42" x1="-.5" y1="60" x2="120.5" y2="60" gradientUnits="userSpaceOnUse">
      <stop offset=".26" stop-color="#6d6250"/>
      <stop offset=".68" stop-color="#d8ccb9"/>
    </linearGradient>
    <filter id="drop-shadow-1" x="22.8" y="20.88" width="78.48" height="76.08" filterUnits="userSpaceOnUse">
      <feOffset dx="2" dy="-1"/>
      <feGaussianBlur result="blur" stdDeviation="2"/>
      <feFlood flood-color="#1d1d1b" flood-opacity=".3"/>
      <feComposite in2="blur" operator="in"/>
      <feComposite in="SourceGraphic"/>
    </filter>
  </defs>
  <rect class="cls-3" width="120" height="120" rx="21.05" ry="21.05"/>
  <g id="Camada_1-2" data-name="Camada 1-2" class="cls-2">
    <path class="cls-1" d="M93.09,28.11l-23.01,39.86-10.08-8.46h0l-10.08,8.46L26.9,28.11v6.46l.07.11h-.07v56.82l22.15-18.58,10.95,18.96h0l10.95-18.96,22.15,18.58v-56.82h-.07l.07-.11v-6.46h0ZM30.13,84.58v-44.42l17.27,29.92s-17.27,14.5-17.27,14.5ZM59.99,85.43l-8.44-14.61,8.44-7.08,8.44,7.08s-8.44,14.61-8.44,14.61ZM89.86,84.58l-17.27-14.5,17.27-29.92v44.42Z"/>
  </g>
</svg>